<svg width="74" height="56" viewBox="0 0 74 56" fill="none" xmlns="http://www.w3.org/2000/svg">
<path fill-rule="evenodd" clip-rule="evenodd" d="M25.7549 13.0694H73.5162V46.9867H65.2082V55.9854L56.2109 46.9867H25.7549V13.0694Z" fill="#D9D9D9"/>
<path fill-rule="evenodd" clip-rule="evenodd" d="M64.8307 1.50061H1.5V39.2966H11.532V51.1699L24.6547 39.2966H64.8307V1.50061Z" fill="white"/>
<path fill-rule="evenodd" clip-rule="evenodd" d="M10.032 54.5498V40.7978H0V0.000488281H66.332V40.7978H25.2333L10.032 54.5498ZM3 37.7965H13.0333V47.7885L24.076 37.7965H63.3307V3.00179H3V37.7965Z" fill="#282D33"/>
<path fill-rule="evenodd" clip-rule="evenodd" d="M16.2137 34.6162H6.18164V6.18286H60.151V34.6162H22.8523H16.2137Z" fill="#D9B165"/>
<path fill-rule="evenodd" clip-rule="evenodd" d="M23.4147 20.2044C23.4147 21.7844 22.1347 23.0645 20.5547 23.0645C18.9747 23.0645 17.6934 21.7844 17.6934 20.2044C17.6934 18.6244 18.9747 17.3445 20.5547 17.3445C22.1347 17.3445 23.4147 18.6244 23.4147 20.2044Z" fill="white"/>
<path fill-rule="evenodd" clip-rule="evenodd" d="M36.027 20.2044C36.027 21.7844 34.7456 23.0645 33.1656 23.0645C31.587 23.0645 30.3057 21.7844 30.3057 20.2044C30.3057 18.6244 31.587 17.3445 33.1656 17.3445C34.7456 17.3445 36.027 18.6244 36.027 20.2044Z" fill="white"/>
<path fill-rule="evenodd" clip-rule="evenodd" d="M48.637 20.2044C48.637 21.7844 47.3557 23.0645 45.777 23.0645C44.197 23.0645 42.917 21.7844 42.917 20.2044C42.917 18.6244 44.197 17.3445 45.777 17.3445C47.3557 17.3445 48.637 18.6244 48.637 20.2044Z" fill="white"/>
</svg>
