<svg width="54" height="53" viewBox="0 0 54 53" fill="none" xmlns="http://www.w3.org/2000/svg">
<path fill-rule="evenodd" clip-rule="evenodd" d="M51.9802 6.98145H1.03711V1.03393H51.9802V6.98145Z" fill="white"/>
<path fill-rule="evenodd" clip-rule="evenodd" d="M53.0139 8.01636H0.00195312V-3.71933e-05H53.0139V8.01636ZM2.07084 5.94748H50.945V2.06884H2.07084V5.94748Z" fill="#282D33"/>
<path fill-rule="evenodd" clip-rule="evenodd" d="M51.9802 42.4507H1.03711V28.7432L5.71259 31.6742L15.0213 25.6403L23.2969 28.5704L30.8813 21.1579L38.8122 25.1229L44.1559 19.4336L47.0869 21.3307L51.9802 15.8133V42.4507Z" fill="white"/>
<path fill-rule="evenodd" clip-rule="evenodd" d="M53.0139 43.4846H0.00195312V26.8737L5.70315 30.4472L14.8868 24.4941L23.0337 27.3801L30.6853 19.9032L38.5859 23.8526L43.9929 18.0963L46.9019 19.9786L53.0139 13.0881V43.4846ZM2.07084 41.4157H50.945V18.5384L47.2714 22.6808L44.3183 20.7709L39.0381 26.3921L31.0777 22.4115L23.5576 29.7606L15.1561 26.7846L5.72061 32.9002L2.07084 30.6117V41.4157Z" fill="#282D33"/>
<path fill-rule="evenodd" clip-rule="evenodd" d="M5.29714 5H3.36426V2.93107H5.29714V5Z" fill="#282D33"/>
<path fill-rule="evenodd" clip-rule="evenodd" d="M8.64564 5H6.71094V2.93107H8.64564V5Z" fill="#282D33"/>
<path fill-rule="evenodd" clip-rule="evenodd" d="M11.9914 5H10.0576V2.93107H11.9914V5Z" fill="#282D33"/>
<path fill-rule="evenodd" clip-rule="evenodd" d="M38.0767 24.4399C38.0749 21.3618 36.8773 18.4703 34.7054 16.3012C32.5308 14.1238 29.6329 12.9281 26.5484 12.9346C23.4768 12.9428 20.5917 14.1404 18.4291 16.3039C13.9448 20.7928 13.9448 28.0961 18.4337 32.5804C20.611 34.7577 23.5126 35.9525 26.5971 35.947C29.6669 35.9396 32.5474 34.743 34.7109 32.5794C36.8819 30.4076 38.0785 27.517 38.0767 24.4399Z" fill="white"/>
<path fill-rule="evenodd" clip-rule="evenodd" d="M26.5779 36.9819C23.2204 36.9819 20.0679 35.6777 17.7021 33.311C15.3364 30.948 14.0322 27.7982 14.0312 24.4435C14.0312 21.0897 15.3336 17.939 17.6975 15.5733C20.056 13.213 23.1984 11.9088 26.5457 11.9006C29.9253 11.9006 33.0732 13.2038 35.4371 15.5696C37.8038 17.9335 39.109 21.0833 39.1108 24.4389C39.1126 27.7918 37.8103 30.9425 35.4427 33.311C33.0833 35.6694 29.9437 36.9737 26.6 36.9819H26.5779ZM26.5733 13.9694C23.7544 13.9759 21.1304 15.0659 19.1608 17.0356C17.1875 19.0107 16.1002 21.6421 16.1002 24.4435C16.1011 27.2449 17.1893 29.8754 19.1644 31.8478C21.1405 33.8248 23.7737 34.913 26.5779 34.913V35.947L26.5954 34.913C29.3876 34.9066 32.0107 33.8175 33.9804 31.8478C35.9564 29.8708 37.0447 27.2404 37.0419 24.4408C37.0401 21.6375 35.9509 19.0061 33.9748 17.0328C32.0006 15.0567 29.372 13.9694 26.5733 13.9694Z" fill="#282D33"/>
<path fill-rule="evenodd" clip-rule="evenodd" d="M32.8581 30.696C31.1762 32.3844 28.9455 33.3118 26.5733 33.3118C21.6809 33.3154 17.7012 29.3376 17.7021 24.4452C17.7021 22.085 18.6213 19.8635 20.2913 18.1861C21.9705 16.4996 24.2011 15.5722 26.5696 15.5722C28.9372 15.5713 31.1633 16.4922 32.8425 18.1723C34.5199 19.8479 35.4445 22.0767 35.4454 24.4406C35.4463 26.7999 34.5291 29.0196 32.8581 30.696Z" fill="#DD4D60"/>
<path fill-rule="evenodd" clip-rule="evenodd" d="M20.9693 24.4453H18.9004C18.9004 22.4021 19.6954 20.4794 21.1393 19.0299C22.5897 17.5732 24.5189 16.7699 26.5703 16.7699V18.8379C25.0731 18.8379 23.665 19.4252 22.6053 20.4904C21.5502 21.5492 20.9693 22.9536 20.9693 24.4453Z" fill="white"/>
<path fill-rule="evenodd" clip-rule="evenodd" d="M29.9401 49.864H23.2031V39.1694L29.9392 39.1703L29.9401 49.864Z" fill="#D9B165"/>
<path fill-rule="evenodd" clip-rule="evenodd" d="M24.2207 41.4717L24.2216 39.1684L28.9219 39.1694V41.4717" fill="white"/>
<path fill-rule="evenodd" clip-rule="evenodd" d="M25.2554 41.4717L23.1865 41.4708L23.1884 38.1344L29.9566 38.1354V41.4717H27.8877V40.2034H25.2554V41.4717Z" fill="#282D33"/>
<path fill-rule="evenodd" clip-rule="evenodd" d="M28.9219 49.8641C28.9219 50.2391 28.9219 50.6159 28.9219 50.9927C27.6251 52.2905 25.5194 52.2896 24.2207 50.9918C24.2207 50.6159 24.2207 50.24 24.2207 49.8641" fill="white"/>
<path fill-rule="evenodd" clip-rule="evenodd" d="M26.5725 53H26.5716C25.408 52.9991 24.3124 52.546 23.4898 51.7234L23.1865 51.4201V49.864H25.2554V50.5157C25.6378 50.785 26.0936 50.9311 26.5725 50.9311C27.0495 50.9311 27.5054 50.7859 27.8868 50.5166L27.8877 49.864H29.9566L29.9557 51.421L29.6533 51.7234C28.8307 52.546 27.737 53 26.5725 53Z" fill="#282D33"/>
<path fill-rule="evenodd" clip-rule="evenodd" d="M23.7329 30.0664L16.8682 27.7512L17.529 25.7908L23.1318 27.6805L30.3165 19.9958L36.6987 23.7384L35.6518 25.5224L30.697 22.6171L23.7329 30.0664Z" fill="white"/>
</svg>
