<svg width="60" height="55" viewBox="0 0 60 55" fill="none" xmlns="http://www.w3.org/2000/svg">
<path fill-rule="evenodd" clip-rule="evenodd" d="M58.7635 38.9209V5.26217C58.7635 4.39396 58.0546 3.68612 57.1853 3.68612H2.79669C1.92631 3.68612 1.2207 4.39396 1.2207 5.26217V38.9209H58.7635Z" fill="white"/>
<path fill-rule="evenodd" clip-rule="evenodd" d="M59.9826 40.1411H0V5.26189C0 3.71949 1.25516 2.46538 2.79648 2.46538H57.1851C58.7275 2.46538 59.9826 3.71949 59.9826 5.26189V40.1411ZM2.4399 37.7012H57.5428V5.26189C57.5428 5.0657 57.3823 4.90524 57.1851 4.90524H2.79648C2.59921 4.90524 2.4399 5.0657 2.4399 5.26189V37.7012Z" fill="#282D33"/>
<path fill-rule="evenodd" clip-rule="evenodd" d="M1.22559 38.8869V43.7407C1.22559 44.6718 2.17726 45.708 3.10834 45.708H57.2942C58.2253 45.708 58.7814 44.752 58.7814 43.8209V38.8869H1.22559Z" fill="white"/>
<path fill-rule="evenodd" clip-rule="evenodd" d="M57.2939 46.9287H3.10802C1.5125 46.9287 0.00585938 45.3798 0.00585938 43.7409V37.6667H60.0005V43.8211C60.0005 45.3484 58.9881 46.9287 57.2939 46.9287ZM2.44466 40.1066V43.7409C2.44466 44.0347 2.88473 44.4888 3.10802 44.4888H57.2939C57.3709 44.4888 57.5606 44.1994 57.5606 43.8211V40.1066H2.44466Z" fill="#282D33"/>
<path fill-rule="evenodd" clip-rule="evenodd" d="M23.6004 45.7476C23.5017 46.954 23.7163 49.6378 23.4562 50.9493C23.2177 52.1492 23.053 52.1903 22.4156 52.5437C22.0558 52.741 21.4488 53.0152 20.9404 53.2363" fill="white"/>
<path fill-rule="evenodd" clip-rule="evenodd" d="M21.4251 54.355L20.4561 52.1156C21.063 51.8533 21.5627 51.6192 21.8294 51.4739L21.9106 51.4284C21.9865 51.3872 22.0527 51.3547 22.109 51.3189C22.135 51.2495 22.186 51.0848 22.2597 50.7119C22.393 50.041 22.3746 48.737 22.3616 47.69C22.3507 46.9128 22.3421 46.1779 22.3843 45.6479L24.8156 45.8473C24.782 46.2625 24.7906 46.9399 24.8004 47.6586C24.8177 48.9387 24.8361 50.2632 24.6529 51.1867C24.3635 52.6435 24.008 53.0575 23.0878 53.5648L23.0076 53.6103C22.5729 53.8488 21.9074 54.1469 21.4251 54.355Z" fill="#282D33"/>
<path fill-rule="evenodd" clip-rule="evenodd" d="M39.0032 53.2437C38.4915 53.0215 37.8748 52.7418 37.5117 52.5434C36.8754 52.1901 36.7497 52.1489 36.5134 50.949C36.2533 49.6375 36.4668 47.0198 36.3682 45.8124" fill="white"/>
<path fill-rule="evenodd" clip-rule="evenodd" d="M38.5168 54.3623C38.0247 54.1477 37.3483 53.8442 36.9267 53.6133L36.8703 53.583C35.8721 53.0291 35.5968 52.6031 35.3171 51.1854C35.1339 50.2629 35.1513 48.9612 35.1675 47.7017C35.1773 46.9939 35.1859 46.3273 35.1523 45.9121L37.5836 45.7127C37.6269 46.2438 37.6183 46.9679 37.6074 47.7331C37.5944 48.7606 37.576 50.0397 37.7104 50.7128C37.7841 51.09 37.8328 51.2634 37.8599 51.3415C37.9152 51.3761 37.9792 51.4075 38.054 51.4498C38.3596 51.6167 38.8669 51.8552 39.4902 52.1251L38.5168 54.3623Z" fill="#282D33"/>
<path fill-rule="evenodd" clip-rule="evenodd" d="M40.6495 54.3589H19.3604V51.919H40.6495V54.3589Z" fill="#282D33"/>
<path fill-rule="evenodd" clip-rule="evenodd" d="M14.9552 33.6587H7.72656V24.6373H14.9552V33.6587Z" fill="#D9B165"/>
<path fill-rule="evenodd" clip-rule="evenodd" d="M26.8744 33.6587H19.6426V12.5094H26.8744V33.6587Z" fill="white"/>
<path fill-rule="evenodd" clip-rule="evenodd" d="M28.0935 34.8779H18.4229V11.2898H28.0935V34.8779ZM20.8617 32.4381H25.6547V13.7297H20.8617V32.4381Z" fill="#282D33"/>
<path fill-rule="evenodd" clip-rule="evenodd" d="M38.7905 33.6587H31.5586V18.2335H38.7905V33.6587Z" fill="#D9B165"/>
<path fill-rule="evenodd" clip-rule="evenodd" d="M50.7074 33.6587H43.4766V7.61339H50.7074V33.6587Z" fill="#D9D9D9"/>
<path fill-rule="evenodd" clip-rule="evenodd" d="M29.743 -0.000443459H16.4326C15.8982 -0.000443459 15.4668 0.430995 15.4668 0.963197V6.49331C15.4668 7.02768 15.8982 7.45582 16.4326 7.45582H21.773L22.1252 8.06824L23.0856 9.73096L24.047 8.06824L24.3993 7.45582H29.743C30.2741 7.45582 30.7077 7.02768 30.7077 6.49331V0.963197C30.7077 0.430995 30.2741 -0.000443459 29.743 -0.000443459Z" fill="#D9D9D9"/>
<path fill-rule="evenodd" clip-rule="evenodd" d="M26.678 4.99854H19.4971V2.55867H26.678V4.99854Z" fill="white"/>
<path fill-rule="evenodd" clip-rule="evenodd" d="M54.6003 34.8779H5.40039V32.4381H54.6003V34.8779Z" fill="#282D33"/>
</svg>
