<svg width="79" height="71" viewBox="0 0 79 71" fill="none" xmlns="http://www.w3.org/2000/svg">
<path fill-rule="evenodd" clip-rule="evenodd" d="M66.817 70.8359H12.6396V34.4506H15.6396V67.8346H63.8156V49.0813H66.817V70.8359Z" fill="#282D33"/>
<path fill-rule="evenodd" clip-rule="evenodd" d="M66.8168 40.6396H63.8154V24.2583H66.8168V40.6396Z" fill="#282D33"/>
<path fill-rule="evenodd" clip-rule="evenodd" d="M15.6396 29.5742H12.6396V8.6276H66.817V18.3196H63.8156V11.6289H15.6396V29.5742Z" fill="#282D33"/>
<path fill-rule="evenodd" clip-rule="evenodd" d="M65.317 10.1289H14.1396V1.50089H65.317V10.1289Z" fill="white"/>
<path fill-rule="evenodd" clip-rule="evenodd" d="M66.817 11.6289H12.6396V-0.000407219H66.817V11.6289ZM15.6396 8.6276H63.8156V3.00089H15.6396V8.6276Z" fill="#282D33"/>
<path fill-rule="evenodd" clip-rule="evenodd" d="M20.3196 7.25293H17.5156V4.25155H20.3196V7.25293Z" fill="#282D33"/>
<path fill-rule="evenodd" clip-rule="evenodd" d="M25.1768 7.25293H22.3701V4.25155H25.1768V7.25293Z" fill="#282D33"/>
<path fill-rule="evenodd" clip-rule="evenodd" d="M30.0319 7.25293H27.2266V4.25155H30.0319V7.25293Z" fill="#282D33"/>
<path fill-rule="evenodd" clip-rule="evenodd" d="M76.74 45.5251V27.7598C76.74 24.9172 74.4373 22.6105 71.5893 22.6105H58.7173C55.872 22.6105 53.568 24.9172 53.568 27.7598V34.0158H20.0787H14.1933H10.1466H4.26135H1.5V36.9585V39.9025H4.26135V46.5238V50.5678H7.20532H10.1466V46.5238H14.1933V50.5678H17.1373H20.0787V39.9025H53.568V45.5251C53.568 48.3678 55.872 50.6758 58.7173 50.6758H71.5893C74.4373 50.6758 76.74 48.3678 76.74 45.5251ZM70.8547 44.7918H59.4547V28.4985H70.8547V44.7918Z" fill="#D9B165"/>
<path fill-rule="evenodd" clip-rule="evenodd" d="M71.5893 52.1758H58.7173C55.0507 52.1758 52.0667 49.1918 52.0667 45.5251V41.4038H21.5787V52.0678H12.6933V48.0238H11.648V52.0678H2.76135V41.4038H0V32.5158H52.0667V27.7598C52.0667 24.0932 55.0507 21.1105 58.7173 21.1105H71.5893C75.2573 21.1105 78.24 24.0932 78.24 27.7598V45.5251C78.24 49.1918 75.2573 52.1758 71.5893 52.1758ZM18.5774 38.4025H55.068V45.5251C55.068 47.5371 56.7053 49.1745 58.7173 49.1745H71.5893C73.6013 49.1745 75.24 47.5371 75.24 45.5251V27.7598C75.24 25.7478 73.6013 24.1105 71.5893 24.1105H58.7173C56.7053 24.1105 55.068 25.7478 55.068 27.7598V35.5172H3V38.4025H5.76265V49.0665H8.64665V45.0225H15.6933V49.0665H18.5774V38.4025ZM72.356 46.2918H57.9533V26.9972H72.356V46.2918ZM60.9547 43.2904H69.3547V29.9985H60.9547V43.2904Z" fill="#282D33"/>
<path fill-rule="evenodd" clip-rule="evenodd" d="M15.6934 50.5674H12.6934V38.7314H15.6934V50.5674Z" fill="#282D33"/>
<path fill-rule="evenodd" clip-rule="evenodd" d="M43.1843 63.5254H18.6123V60.5241H43.1843V63.5254Z" fill="#282D33"/>
<path fill-rule="evenodd" clip-rule="evenodd" d="M49.3736 57.8975H18.6123V54.8962H49.3736V57.8975Z" fill="#282D33"/>
<path fill-rule="evenodd" clip-rule="evenodd" d="M49.3729 52.2705H25.1143V49.2691H49.3729V52.2705Z" fill="#282D33"/>
<path fill-rule="evenodd" clip-rule="evenodd" d="M49.3729 46.6436H25.1143V43.6423H49.3729V46.6436Z" fill="#282D33"/>
<path fill-rule="evenodd" clip-rule="evenodd" d="M49.3736 29.7627H18.6123V26.7614H49.3736V29.7627Z" fill="#282D33"/>
<path fill-rule="evenodd" clip-rule="evenodd" d="M49.3736 24.1348H18.6123V21.1348H49.3736V24.1348Z" fill="#282D33"/>
<path fill-rule="evenodd" clip-rule="evenodd" d="M40.1829 18.5078H18.6123V15.5065H40.1829V18.5078Z" fill="#282D33"/>
</svg>
