<svg width="77" height="69" viewBox="0 0 77 69" fill="none" xmlns="http://www.w3.org/2000/svg">
<path fill-rule="evenodd" clip-rule="evenodd" d="M62.6067 68.6709H0V26.7482H62.6067V68.6709ZM3.00134 65.6695H59.6053V29.7482H3.00134V65.6695Z" fill="white"/>
<path fill-rule="evenodd" clip-rule="evenodd" d="M6.00293 62.668V32.7493H56.6042V62.668H6.00293Z" fill="#DD4D60"/>
<path fill-rule="evenodd" clip-rule="evenodd" d="M62.6067 29.748H0V17.7934H62.6067V29.748ZM3.00134 26.748H59.6053V20.7947H3.00134V26.748Z" fill="white"/>
<path fill-rule="evenodd" clip-rule="evenodd" d="M7.91423 25.207H5.00488V22.2056H7.91423V25.207Z" fill="white"/>
<path fill-rule="evenodd" clip-rule="evenodd" d="M12.955 25.207H10.043V22.2056H12.955V25.207Z" fill="white"/>
<path fill-rule="evenodd" clip-rule="evenodd" d="M17.9944 25.207H15.0811V22.2056H17.9944V25.207Z" fill="white"/>
<path fill-rule="evenodd" clip-rule="evenodd" d="M43.3223 26.1239L49.6996 23.4172L56.0756 20.7118L69.6729 52.7439L62.0343 52.4745L56.9196 58.1572L43.3223 26.1239Z" fill="#111043"/>
<path fill-rule="evenodd" clip-rule="evenodd" d="M56.4585 60.9121L41.3545 25.3294L56.8705 18.7441L71.9758 54.3267L62.6812 54.0001L56.4585 60.9121ZM45.2892 26.9201L57.3812 55.4028L61.3878 50.9508L67.3705 51.1615L55.2798 22.6788L45.2892 26.9201Z" fill="white"/>
<path fill-rule="evenodd" clip-rule="evenodd" d="M46.1483 22.1287L52.5723 24.722L58.995 27.3167L45.9603 59.582L40.7456 53.9927L33.1123 54.394L46.1483 22.1287Z" fill="#111043"/>
<path fill-rule="evenodd" clip-rule="evenodd" d="M46.4695 62.3271L40.1269 55.5285L30.8389 56.0165L45.3202 20.1738L60.9482 26.4872L46.4695 62.3271ZM41.3655 52.4565L45.4509 56.8365L57.0415 28.1458L46.9789 24.0805L35.3869 52.7725L41.3655 52.4565Z" fill="white"/>
<path fill-rule="evenodd" clip-rule="evenodd" d="M76.024 24.631C76.024 25.8857 73.7467 26.9443 73.5574 28.143C73.364 29.3763 75.2001 31.0844 74.8241 32.2457C74.4401 33.4257 71.9467 33.7283 71.3907 34.819C70.828 35.9217 72.0427 38.1177 71.32 39.1124C70.5934 40.1097 68.1294 39.6271 67.2587 40.4977C66.3867 41.3684 66.868 43.8323 65.8707 44.559C64.8774 45.2817 62.6827 44.0644 61.5814 44.627C60.4907 45.1844 60.1867 47.6777 59.0054 48.0604C57.8467 48.4377 56.1374 46.6003 54.9054 46.795C53.7054 46.983 52.6454 49.2617 51.3934 49.2617C50.1414 49.2617 49.0814 46.983 47.8814 46.795C46.6494 46.6003 44.94 48.4377 43.7814 48.0604C42.6 47.6777 42.2974 45.1843 41.2067 44.6257C40.1054 44.063 37.9094 45.2804 36.9161 44.5577C35.9187 43.8324 36.3987 41.3657 35.528 40.495C34.6574 39.6257 32.1934 40.1084 31.4667 39.1097C30.7427 38.1164 31.96 35.9217 31.396 34.819C30.8387 33.7283 28.3467 33.4257 27.9627 32.2444C27.5867 31.0844 29.4214 29.3763 29.2294 28.143C29.04 26.9443 26.7627 25.8844 26.7627 24.631C26.7627 23.379 29.04 22.3191 29.2294 21.1191C29.4214 19.8884 27.584 18.179 27.9627 17.019C28.3454 15.839 30.8387 15.535 31.396 14.4443C31.9574 13.3417 30.7414 11.1471 31.464 10.1537C32.1907 9.15506 34.6574 9.63637 35.5267 8.76571C36.3974 7.89504 35.916 5.42968 36.9147 4.70435C37.908 3.98034 40.104 5.19637 41.2054 4.63371C42.2974 4.07771 42.5987 1.58436 43.7787 1.20036C44.9401 0.823025 46.6481 2.66171 47.8814 2.46704C49.0814 2.27904 50.1414 0.000324249 51.3934 0.000324249C52.6454 0.000324249 53.7067 2.27904 54.9067 2.46704C56.1387 2.66171 57.8467 0.823025 59.0067 1.20036C60.188 1.58569 60.4907 4.07767 61.5814 4.63501C62.6827 5.19767 64.88 3.98168 65.872 4.70435C66.8707 5.43234 66.3894 7.89634 67.2601 8.76701C68.1294 9.63634 70.596 9.15506 71.3214 10.1537C72.0454 11.1457 70.828 13.3417 71.3907 14.4457C71.948 15.5351 74.4414 15.8377 74.8254 17.0177C75.2014 18.1777 73.364 19.8884 73.5574 21.1191C73.7467 22.3191 76.024 23.379 76.024 24.631Z" fill="#D9B165"/>
<path fill-rule="evenodd" clip-rule="evenodd" d="M67.3478 24.6313C67.3478 33.4433 60.2038 40.5859 51.3945 40.5859C42.5824 40.5859 35.4385 33.4433 35.4385 24.6313C35.4385 15.8206 42.5824 8.6779 51.3945 8.6779C60.2038 8.6779 67.3478 15.8206 67.3478 24.6313Z" fill="white"/>
<path fill-rule="evenodd" clip-rule="evenodd" d="M51.0437 17.3888L53.1624 21.6795L57.8971 22.3688L54.4704 25.7075L55.2797 30.4248L51.0437 28.1982L46.8077 30.4248L47.6171 25.7075L44.1904 22.3688L48.9251 21.6795L51.0437 17.3888Z" fill="#282D33"/>
</svg>
