<svg width="77" height="73" viewBox="0 0 77 73" fill="none" xmlns="http://www.w3.org/2000/svg">
<path fill-rule="evenodd" clip-rule="evenodd" d="M76.9027 55.7295H66.024V52.7282H73.9013V11.6295H3.00134V52.7282H10.8787V55.7295H0V8.62817H76.9027V55.7295Z" fill="white"/>
<path fill-rule="evenodd" clip-rule="evenodd" d="M76.9027 11.6294H0V8.10623e-05H76.9027V11.6294ZM3.00134 8.62809H73.9013V3.00146H3.00134V8.62809Z" fill="white"/>
<path fill-rule="evenodd" clip-rule="evenodd" d="M7.67997 7.25342H4.87598V4.25212H7.67997V7.25342Z" fill="white"/>
<path fill-rule="evenodd" clip-rule="evenodd" d="M12.5377 7.25342H9.73242V4.25212H12.5377V7.25342Z" fill="white"/>
<path fill-rule="evenodd" clip-rule="evenodd" d="M17.3923 7.25342H14.5869V4.25212H17.3923V7.25342Z" fill="white"/>
<path fill-rule="evenodd" clip-rule="evenodd" d="M59.0994 45.4975C59.0994 56.9015 49.8554 66.1455 38.4514 66.1455C27.0461 66.1455 17.8008 56.9015 17.8008 45.4975C17.8008 34.0935 27.0461 24.8481 38.4514 24.8481C49.8554 24.8481 59.0994 34.0935 59.0994 45.4975Z" fill="#D9B165"/>
<path fill-rule="evenodd" clip-rule="evenodd" d="M38.4516 72.2095C23.721 72.2095 11.7383 60.2267 11.7383 45.4974C11.7383 30.7667 23.721 18.7841 38.4516 18.7841C53.181 18.7841 65.1636 30.7667 65.1636 45.4974C65.1636 60.2267 53.181 72.2095 38.4516 72.2095ZM38.4516 21.7854C25.377 21.7854 14.7396 32.4227 14.7396 45.4974C14.7396 58.5707 25.377 69.2081 38.4516 69.2081C51.525 69.2081 62.1623 58.5707 62.1623 45.4974C62.1623 32.4227 51.525 21.7854 38.4516 21.7854Z" fill="white"/>
<path fill-rule="evenodd" clip-rule="evenodd" d="M38.4519 72.2095C29.4306 72.2095 22.3652 60.4747 22.3652 45.4974C22.3652 30.5187 29.4306 18.7841 38.4519 18.7841C47.4679 18.7841 54.5293 30.5187 54.5293 45.4974C54.5293 60.4747 47.4679 72.2095 38.4519 72.2095ZM38.4519 21.7854C31.3572 21.7854 25.3652 32.6441 25.3652 45.4974C25.3652 58.3494 31.3572 69.2081 38.4519 69.2081C45.5399 69.2081 51.5293 58.3494 51.5293 45.4974C51.5293 32.6441 45.5399 21.7854 38.4519 21.7854Z" fill="white"/>
<path fill-rule="evenodd" clip-rule="evenodd" d="M38.4515 72.2095C37.6222 72.2095 36.9502 71.5375 36.9502 70.7095V20.2854C36.9502 19.4561 37.6222 18.7841 38.4515 18.7841C53.1808 18.7841 65.1635 30.7667 65.1635 45.4974C65.1635 60.2267 53.1808 72.2095 38.4515 72.2095ZM39.9515 21.8321V69.1615C52.3302 68.3841 62.1622 58.0667 62.1622 45.4974C62.1622 32.9267 52.3302 22.6108 39.9515 21.8321Z" fill="white"/>
<path fill-rule="evenodd" clip-rule="evenodd" d="M62.021 55.8843H14.877C14.2516 55.8843 13.6916 55.4962 13.4716 54.9109C12.321 51.8522 11.7383 48.6842 11.7383 45.4976C11.7383 42.3056 12.3223 39.1363 13.4756 36.0789C13.6943 35.4949 14.2543 35.1069 14.8796 35.1069H62.021C62.645 35.1069 63.2036 35.4936 63.425 36.0776C64.5783 39.1349 65.1636 42.3042 65.1636 45.4976C65.1636 48.6882 64.5783 51.8576 63.425 54.9123C63.2036 55.4976 62.645 55.8843 62.021 55.8843ZM15.9383 52.8829H60.9596C61.7596 50.4696 62.1623 47.9896 62.1623 45.4976C62.1623 43.0042 61.7583 40.5229 60.9596 38.1082H15.941C15.1423 40.5229 14.7396 43.0042 14.7396 45.4976C14.7396 47.9869 15.1423 50.4669 15.9383 52.8829Z" fill="white"/>
</svg>
