<svg width="74" height="74" viewBox="0 0 74 74" fill="none" xmlns="http://www.w3.org/2000/svg">
<path fill-rule="evenodd" clip-rule="evenodd" d="M42.3827 8.51586C37.852 3.9892 31.836 1.49717 25.448 1.49983C19.0413 1.49717 13.0173 4.0012 8.488 8.55053C3.98266 13.0812 1.49867 19.0879 1.5 25.4559C1.50533 38.6599 12.252 49.4079 25.4573 49.3999C31.8667 49.4012 37.892 46.8892 42.4253 42.3425C46.932 37.8132 49.4093 31.8119 49.4093 25.4465C49.408 19.0559 46.9147 13.0412 42.3827 8.51586Z" fill="white"/>
<path fill-rule="evenodd" clip-rule="evenodd" d="M25.4427 50.9014C11.4187 50.9014 0.00533384 39.4867 5.05571e-07 25.4561C-0.00133283 18.6881 2.63466 12.3094 7.42399 7.49341C12.2347 2.66007 18.6307 0 25.436 0C32.244 0 38.6307 2.6467 43.4427 7.45337C48.256 12.2614 50.908 18.6507 50.9093 25.4454C50.9093 32.2174 48.2733 38.5934 43.488 43.4014C38.668 48.2374 32.2653 50.9014 25.46 50.9014L25.4427 49.4001L25.456 47.9001C31.4613 47.9001 37.1093 45.5494 41.3627 41.2827C45.584 37.0427 47.908 31.4174 47.908 25.4467C47.9067 19.4534 45.568 13.8174 41.3227 9.57739C37.0773 5.33606 31.444 3.00138 25.4613 3.00138C19.436 3.00138 13.7947 5.34804 9.552 9.60938C5.32534 13.8587 2.99866 19.4867 3.00132 25.4547C3.00532 37.8307 13.0733 47.9001 25.4427 47.9001V50.9014Z" fill="#282D33"/>
<path fill-rule="evenodd" clip-rule="evenodd" d="M39.4263 39.3481C35.6889 43.1014 30.733 45.1627 25.457 45.1641C14.5823 45.1721 5.73562 36.3294 5.73828 25.4534C5.73828 20.2067 7.78228 15.2667 11.4943 11.54C15.2263 7.79203 20.1836 5.73066 25.4489 5.72932C30.7129 5.72932 35.6609 7.77468 39.3916 11.5094C43.1223 15.2334 45.1756 20.1893 45.1796 25.444C45.1809 30.6867 43.1409 35.6227 39.4263 39.3481Z" fill="#D9D9D9"/>
<path fill-rule="evenodd" clip-rule="evenodd" d="M45.1799 25.4441C45.1772 22.0294 44.3039 18.7428 42.6732 15.8375L38.7266 18.0668L24.5039 26.1082L34.1452 39.2974L36.1332 42.0161C37.3079 41.2548 38.4132 40.3668 39.4266 39.3481C43.1412 35.6228 45.1812 30.6868 45.1799 25.4441Z" fill="#DD4D60"/>
<path fill-rule="evenodd" clip-rule="evenodd" d="M71.7889 64.8678C71.7902 68.6864 68.6929 71.7825 64.8716 71.7852C64.3169 71.2305 63.7649 70.6784 63.2129 70.1238C65.5196 67.8171 67.8262 65.5118 70.1289 63.2065C70.6822 63.7585 71.2356 64.3131 71.7889 64.8678Z" fill="white"/>
<path fill-rule="evenodd" clip-rule="evenodd" d="M64.2504 73.2852L61.0918 70.1225L70.1278 61.0851L73.2905 64.2478V64.8665C73.2905 67.1145 72.4158 69.2278 70.8251 70.8184C69.2358 72.4078 67.1211 73.2838 64.8718 73.2852H64.2504ZM65.3345 70.1238L65.4611 70.2518C66.6865 70.1198 67.8211 69.5785 68.7038 68.6958C69.5865 67.8131 70.1265 66.6811 70.2571 65.4571L70.1291 65.3291L65.3345 70.1238Z" fill="#282D33"/>
<path fill-rule="evenodd" clip-rule="evenodd" d="M34.8212 34.7653C32.3172 37.28 28.9932 38.6613 25.4585 38.6626C18.1692 38.6679 12.2399 32.7399 12.2412 25.4506C12.2412 21.9346 13.6092 18.6227 16.0999 16.1253C18.5999 13.612 21.9225 12.232 25.4532 12.2306C28.9799 12.2306 32.2972 13.6013 34.7972 16.1053C37.2985 18.6013 38.6745 21.9226 38.6772 25.4453C38.6799 28.9586 37.3119 32.2666 34.8212 34.7653Z" fill="white"/>
<path fill-rule="evenodd" clip-rule="evenodd" d="M71.1531 62.1838L62.1905 71.1465L42.6465 51.6025L51.6105 42.6411L71.1531 62.1838Z" fill="#D9B165"/>
<path fill-rule="evenodd" clip-rule="evenodd" d="M65.4552 62.2651L54.6299 51.4371L65.4552 62.2651Z" fill="white"/>
<path fill-rule="evenodd" clip-rule="evenodd" d="M64.395 63.3267L53.5684 52.4986L55.6897 50.376L66.5164 61.2039L64.395 63.3267Z" fill="white"/>
<path fill-rule="evenodd" clip-rule="evenodd" d="M53.9729 47.0509L47.0569 53.9683L43.6689 50.5802L50.5863 43.6643L53.9729 47.0509Z" fill="white"/>
<path fill-rule="evenodd" clip-rule="evenodd" d="M47.0572 56.0908L41.5479 50.5788L50.5865 41.5414L56.0958 47.0508L47.0572 56.0908ZM45.7905 50.5801L47.0572 51.8468L51.8518 47.0508L50.5865 45.7855L45.7905 50.5801Z" fill="#282D33"/>
<path fill-rule="evenodd" clip-rule="evenodd" d="M27.3334 10.3389H24.332V6.96956H27.3334V10.3389Z" fill="#282D33"/>
<path fill-rule="evenodd" clip-rule="evenodd" d="M16.6738 9.18148L18.3592 12.1001L16.6738 9.18148Z" fill="white"/>
<path fill-rule="evenodd" clip-rule="evenodd" d="M17.0603 12.8506L15.375 9.93197L17.9737 8.43197L19.659 11.3506L17.0603 12.8506Z" fill="#282D33"/>
<path fill-rule="evenodd" clip-rule="evenodd" d="M9.85156 15.6773L12.7689 17.3613L9.85156 15.6773Z" fill="white"/>
<path fill-rule="evenodd" clip-rule="evenodd" d="M12.0192 18.6616L9.10059 16.9776L10.6019 14.3789L13.5192 16.0616L12.0192 18.6616Z" fill="#282D33"/>
<path fill-rule="evenodd" clip-rule="evenodd" d="M10.5575 26.2148H7.18945V23.2148H10.5575V26.2148Z" fill="#282D33"/>
<path fill-rule="evenodd" clip-rule="evenodd" d="M9.40137 33.8721L12.32 32.1867L9.40137 33.8721Z" fill="white"/>
<path fill-rule="evenodd" clip-rule="evenodd" d="M10.1517 35.1709L8.65039 32.5722L11.5691 30.8869L13.0704 33.4869L10.1517 35.1709Z" fill="#282D33"/>
<path fill-rule="evenodd" clip-rule="evenodd" d="M15.8975 40.6958L17.5815 37.7771L15.8975 40.6958Z" fill="white"/>
<path fill-rule="evenodd" clip-rule="evenodd" d="M17.1977 41.4453L14.5977 39.9466L16.2817 37.0279L18.8817 38.5266L17.1977 41.4453Z" fill="#282D33"/>
<path fill-rule="evenodd" clip-rule="evenodd" d="M26.4349 43.3574H23.4336V39.9881H26.4349V43.3574Z" fill="#282D33"/>
<path fill-rule="evenodd" clip-rule="evenodd" d="M34.0926 41.144L32.4072 38.2267L34.0926 41.144Z" fill="white"/>
<path fill-rule="evenodd" clip-rule="evenodd" d="M32.7937 41.8945L31.1084 38.9772L33.7057 37.4759L35.3911 40.3932L32.7937 41.8945Z" fill="#282D33"/>
<path fill-rule="evenodd" clip-rule="evenodd" d="M40.9161 34.6494L37.9961 32.9654L40.9161 34.6494Z" fill="white"/>
<path fill-rule="evenodd" clip-rule="evenodd" d="M40.1657 35.9492L37.2471 34.2652L38.7471 31.6652L41.6671 33.3492L40.1657 35.9492Z" fill="#282D33"/>
<path fill-rule="evenodd" clip-rule="evenodd" d="M43.5774 27.1133H40.208V24.112H43.5774V27.1133Z" fill="#282D33"/>
<path fill-rule="evenodd" clip-rule="evenodd" d="M41.3646 16.4548L38.4473 18.1401L41.3646 16.4548Z" fill="white"/>
<path fill-rule="evenodd" clip-rule="evenodd" d="M39.1976 19.439L37.6963 16.8403L40.6136 15.1562L42.1149 17.7536L39.1976 19.439Z" fill="#282D33"/>
<path fill-rule="evenodd" clip-rule="evenodd" d="M34.61 19.9173L27.9434 23.7666L34.61 19.9173Z" fill="white"/>
<path fill-rule="evenodd" clip-rule="evenodd" d="M28.6937 25.0654L27.1924 22.4681L33.8604 18.6174L35.3604 21.2161L28.6937 25.0654Z" fill="#282D33"/>
<path fill-rule="evenodd" clip-rule="evenodd" d="M34.8699 9.63102L33.1846 12.5483L34.8699 9.63102Z" fill="white"/>
<path fill-rule="evenodd" clip-rule="evenodd" d="M34.4844 13.2988L31.8857 11.7975L33.5697 8.88021L36.1697 10.3815L34.4844 13.2988Z" fill="#282D33"/>
<path fill-rule="evenodd" clip-rule="evenodd" d="M25.4572 45.6641C30.3559 45.6627 34.9612 43.9561 38.4345 40.8481C38.8358 40.4907 39.2145 40.116 39.5732 39.732L35.8905 35.5933L25.4452 23.8507L14.9999 35.5933L11.3252 39.7227C14.6879 43.3521 19.7745 45.6681 25.4572 45.6641Z" fill="white"/>
<path fill-rule="evenodd" clip-rule="evenodd" d="M27.3825 27.3598C26.8678 27.8758 26.1851 28.1598 25.4585 28.1611C23.9625 28.1611 22.7451 26.9438 22.7451 25.4478C22.7451 24.7251 23.0265 24.0452 23.5385 23.5318C24.0505 23.0158 24.7331 22.7318 25.4585 22.7318C26.1825 22.7318 26.8638 23.0131 27.3771 23.5278C27.8904 24.0411 28.1731 24.7225 28.1731 25.4465C28.1731 26.1678 27.8931 26.8464 27.3825 27.3598Z" fill="white"/>
<path fill-rule="evenodd" clip-rule="evenodd" d="M25.4601 29.6611H25.4575C23.1348 29.6611 21.2441 27.7704 21.2441 25.4478C21.2441 24.3251 21.6815 23.2691 22.4761 22.4731C23.2681 21.6731 24.3295 21.2318 25.4588 21.2318C26.5855 21.2318 27.6441 21.6704 28.4401 22.4678C29.2335 23.2611 29.6735 24.3185 29.6748 25.4451C29.6748 26.5678 29.2375 27.6238 28.4455 28.4198C27.6495 29.2184 26.5881 29.6598 25.4601 29.6611ZM25.4588 24.2332C25.1308 24.2332 24.8348 24.3558 24.6028 24.5891C24.3681 24.8251 24.2455 25.1198 24.2455 25.4478C24.2455 26.1158 24.7895 26.6598 25.4561 26.6598C25.7881 26.6598 26.0855 26.5358 26.3188 26.3011C26.5508 26.0678 26.6735 25.7718 26.6735 25.4465C26.6735 25.1185 26.5495 24.8225 26.3175 24.5905C26.0828 24.3558 25.7881 24.2332 25.4588 24.2332Z" fill="#282D33"/>
</svg>
