<svg width="73" height="68" viewBox="0 0 73 68" fill="none" xmlns="http://www.w3.org/2000/svg">
<path fill-rule="evenodd" clip-rule="evenodd" d="M43.2692 22.2642C43.2692 33.8642 33.8639 43.2695 22.2639 43.2695C10.6599 43.2695 1.25586 33.8642 1.25586 22.2642C1.25586 10.6615 10.6599 1.25618 22.2639 1.25618C33.8639 1.25618 43.2692 10.6615 43.2692 22.2642Z" fill="white"/>
<path fill-rule="evenodd" clip-rule="evenodd" d="M37.7733 22.2615C37.7733 30.8281 30.828 37.7734 22.264 37.7734C13.6973 37.7734 6.75195 30.8281 6.75195 22.2615C6.75195 13.6975 13.6973 6.75212 22.264 6.75212C30.828 6.75212 37.7733 13.6975 37.7733 22.2615Z" fill="#D9B165"/>
<path fill-rule="evenodd" clip-rule="evenodd" d="M22.264 44.5254C9.98666 44.5254 0 34.5387 0 22.2614C0 9.98672 9.98666 0 22.264 0C34.54 0 44.5267 9.98672 44.5267 22.2614C44.5267 34.5387 34.54 44.5254 22.264 44.5254ZM22.264 3.00138C11.6413 3.00138 3.00134 11.6414 3.00134 22.2614C3.00134 32.8841 11.6413 41.524 22.264 41.524C32.884 41.524 41.5254 32.8841 41.5254 22.2614C41.5254 11.6414 32.884 3.00138 22.264 3.00138Z" fill="#282D33"/>
<path fill-rule="evenodd" clip-rule="evenodd" d="M22.2643 44.5254C14.687 44.5254 8.75098 34.7467 8.75098 22.2614C8.75098 9.77872 14.687 0 22.2643 0C29.8363 0 35.7697 9.77872 35.7697 22.2614C35.7697 34.7467 29.8363 44.5254 22.2643 44.5254ZM22.2643 3.00138C16.5657 3.00138 11.7523 11.8214 11.7523 22.2614C11.7523 32.7041 16.5657 41.524 22.2643 41.524C27.9563 41.524 32.7683 32.7041 32.7683 22.2614C32.7683 11.8214 27.9563 3.00138 22.2643 3.00138Z" fill="#282D33"/>
<path fill-rule="evenodd" clip-rule="evenodd" d="M22.264 44.5254C21.4347 44.5254 20.7627 43.8547 20.7627 43.0254V1.5C20.7627 0.670666 21.4347 0 22.264 0C34.54 0 44.5267 9.98672 44.5267 22.2614C44.5267 34.5387 34.54 44.5254 22.264 44.5254ZM23.764 3.05867V41.4667C33.6867 40.6987 41.5254 32.3787 41.5254 22.2614C41.5254 12.1454 33.6867 3.82668 23.764 3.05867Z" fill="#282D33"/>
<path fill-rule="evenodd" clip-rule="evenodd" d="M41.6733 31.0801H2.84932C2.22399 31.0801 1.66402 30.6935 1.44535 30.1082C0.485353 27.5588 0 24.9175 0 22.2615C0 19.6041 0.486655 16.9627 1.44666 14.4134C1.66666 13.8281 2.22668 13.4415 2.85201 13.4415H41.6733C42.2973 13.4415 42.8574 13.8281 43.0774 14.4121C44.04 16.9614 44.5267 19.6028 44.5267 22.2615C44.5267 24.9228 44.04 27.5628 43.0774 30.1108C42.8574 30.6948 42.2973 31.0801 41.6733 31.0801ZM3.91602 28.0801H40.608C41.2173 26.1774 41.5254 24.2241 41.5254 22.2615C41.5254 20.3001 41.2173 18.3468 40.608 16.4428H3.91732C3.30798 18.3481 3.00134 20.3001 3.00134 22.2615C3.00134 24.2215 3.30802 26.1734 3.91602 28.0801Z" fill="#282D33"/>
<path fill-rule="evenodd" clip-rule="evenodd" d="M71.2299 66.2905H22.2832V14.9599H71.2299V66.2905Z" fill="white"/>
<path fill-rule="evenodd" clip-rule="evenodd" d="M72.7302 67.792H20.7822V13.4587H72.7302V67.792ZM23.7836 64.7906H69.7289V16.46H23.7836V64.7906Z" fill="#282D33"/>
<path fill-rule="evenodd" clip-rule="evenodd" d="M71.2299 23.5879H22.2832V14.9599H71.2299V23.5879Z" fill="white"/>
<path fill-rule="evenodd" clip-rule="evenodd" d="M72.7302 25.0879H20.7822V13.4586H72.7302V25.0879ZM23.7836 22.0865H69.7289V16.4599H23.7836V22.0865Z" fill="#282D33"/>
<path fill-rule="evenodd" clip-rule="evenodd" d="M47.2205 20.7119H25.6592V17.7106H47.2205V20.7119Z" fill="#282D33"/>
<path fill-rule="evenodd" clip-rule="evenodd" d="M67.9297 20.7119H65.123V17.7106H67.9297V20.7119Z" fill="#282D33"/>
<path fill-rule="evenodd" clip-rule="evenodd" d="M61.9488 49.644H31.5635V46.6427H61.9488V49.644Z" fill="#282D33"/>
<path fill-rule="evenodd" clip-rule="evenodd" d="M61.9488 42.6108H31.5635V29.8562H61.9488V42.6108Z" fill="#DD4D60"/>
<path fill-rule="evenodd" clip-rule="evenodd" d="M61.9488 56.0215H31.5635V53.0201H61.9488V56.0215Z" fill="#282D33"/>
</svg>
