<svg width="75" height="75" viewBox="0 0 75 75" fill="none" xmlns="http://www.w3.org/2000/svg">
<path fill-rule="evenodd" clip-rule="evenodd" d="M28.6466 74.6572C12.8506 74.6572 0 61.8066 0 46.0119C0 30.2173 12.8506 17.3679 28.6466 17.3679C44.4413 17.3679 57.292 30.2173 57.292 46.0119C57.292 61.8066 44.4413 74.6572 28.6466 74.6572ZM28.6466 20.3693C14.5053 20.3693 3.00134 31.8719 3.00134 46.0119C3.00134 60.1533 14.5053 71.6572 28.6466 71.6572C42.7866 71.6572 54.2906 60.1533 54.2906 46.0119C54.2906 31.8719 42.7866 20.3693 28.6466 20.3693Z" fill="white"/>
<path fill-rule="evenodd" clip-rule="evenodd" d="M32.9269 14.7334H24.3602C23.6442 14.7334 22.9709 14.4534 22.4655 13.9454C21.9602 13.4387 21.6856 12.7668 21.6869 12.0508L21.6855 6.4908C21.6909 5.00814 22.8922 3.80811 24.3602 3.80811L32.9282 3.81209C33.6482 3.81209 34.3229 4.0934 34.8295 4.6014C35.3335 5.1094 35.6082 5.78278 35.6056 6.49878L35.6082 12.0561C35.6002 13.5361 34.3975 14.7334 32.9269 14.7334ZM24.6882 11.7321H32.6082L32.6042 6.8134L24.6869 6.80941L24.6882 11.7321Z" fill="white"/>
<path fill-rule="evenodd" clip-rule="evenodd" d="M8.09366 22.9863L6.14696 20.1183C5.81096 19.629 5.68698 19.033 5.79898 18.445C5.91098 17.857 6.24566 17.349 6.74299 17.0143L11.151 14.0197C12.1683 13.3304 13.559 13.5944 14.251 14.6104L16.2003 17.4771L13.7176 19.165L12.2017 16.9343L9.06034 19.0677L10.5763 21.2997L8.09366 22.9863Z" fill="white"/>
<path fill-rule="evenodd" clip-rule="evenodd" d="M44.9983 46.0119C44.9983 55.0426 37.6769 62.3652 28.6463 62.3652C19.6143 62.3652 12.293 55.0426 12.293 46.0119C12.293 36.9826 19.6143 29.6599 28.6463 29.6599C37.6769 29.6599 44.9983 36.9826 44.9983 46.0119Z" fill="#DD4D60"/>
<path fill-rule="evenodd" clip-rule="evenodd" d="M29.932 27.3838H26.9307V23.6184H29.932V27.3838Z" fill="white"/>
<path fill-rule="evenodd" clip-rule="evenodd" d="M17.2646 26.7273L19.1473 29.9873L17.2646 26.7273Z" fill="white"/>
<path fill-rule="evenodd" clip-rule="evenodd" d="M17.8485 30.7383L15.9658 27.4783L18.5632 25.9769L20.4458 29.2369L17.8485 30.7383Z" fill="white"/>
<path fill-rule="evenodd" clip-rule="evenodd" d="M9.14551 35L12.4068 36.8867L9.14551 35Z" fill="white"/>
<path fill-rule="evenodd" clip-rule="evenodd" d="M11.6559 38.1855L8.39453 36.2988L9.89722 33.7015L13.1585 35.5868L11.6559 38.1855Z" fill="white"/>
<path fill-rule="evenodd" clip-rule="evenodd" d="M10.0177 47.7285H6.25098V44.7271H10.0177V47.7285Z" fill="white"/>
<path fill-rule="evenodd" clip-rule="evenodd" d="M9.35742 57.3965L12.6201 55.5125L9.35742 57.3965Z" fill="white"/>
<path fill-rule="evenodd" clip-rule="evenodd" d="M10.1084 58.6953L8.6084 56.0966L11.8698 54.2139L13.3711 56.8126L10.1084 58.6953Z" fill="white"/>
<path fill-rule="evenodd" clip-rule="evenodd" d="M17.6338 65.5127L19.5191 62.2527L17.6338 65.5127Z" fill="white"/>
<path fill-rule="evenodd" clip-rule="evenodd" d="M18.9323 66.2637L16.335 64.761L18.2203 61.501L20.8176 63.0037L18.9323 66.2637Z" fill="white"/>
<path fill-rule="evenodd" clip-rule="evenodd" d="M28.8594 68.4082L28.8607 64.6416L28.8594 68.4082Z" fill="white"/>
<path fill-rule="evenodd" clip-rule="evenodd" d="M30.3607 68.4082L27.3594 68.4069L27.3607 64.6402L30.362 64.6416L30.3607 68.4082Z" fill="white"/>
<path fill-rule="evenodd" clip-rule="evenodd" d="M40.0265 65.3008L38.1465 62.0381L40.0265 65.3008Z" fill="white"/>
<path fill-rule="evenodd" clip-rule="evenodd" d="M38.7267 66.0508L36.8467 62.7868L39.4467 61.2894L41.3267 64.5521L38.7267 66.0508Z" fill="white"/>
<path fill-rule="evenodd" clip-rule="evenodd" d="M48.1458 57.0254L44.8857 55.1401L48.1458 57.0254Z" fill="white"/>
<path fill-rule="evenodd" clip-rule="evenodd" d="M47.3934 58.3242L44.1348 56.4389L45.6374 53.8416L48.8974 55.7269L47.3934 58.3242Z" fill="white"/>
<path fill-rule="evenodd" clip-rule="evenodd" d="M51.0401 45.8018L47.2734 45.7978L51.0401 45.8018Z" fill="white"/>
<path fill-rule="evenodd" clip-rule="evenodd" d="M51.0391 47.3027L47.2725 47.2987L47.2751 44.2974L51.0418 44.3014L51.0391 47.3027Z" fill="white"/>
<path fill-rule="evenodd" clip-rule="evenodd" d="M47.9329 34.6323L44.6689 36.5137L47.9329 34.6323Z" fill="white"/>
<path fill-rule="evenodd" clip-rule="evenodd" d="M45.4186 37.8135L43.9199 35.2135L47.1826 33.3322L48.6826 35.9322L45.4186 37.8135Z" fill="white"/>
<path fill-rule="evenodd" clip-rule="evenodd" d="M39.6597 26.5128L37.7744 29.7715L39.6597 26.5128Z" fill="white"/>
<path fill-rule="evenodd" clip-rule="evenodd" d="M39.0733 30.5234L36.4746 29.0208L38.3599 25.7607L40.9586 27.2634L39.0733 30.5234Z" fill="white"/>
<path fill-rule="evenodd" clip-rule="evenodd" d="M31.2463 45.9895C31.2449 44.5535 30.0796 43.3895 28.6449 43.3868C27.2103 43.3882 26.0423 44.5535 26.0449 45.9882C26.0449 47.4255 27.2076 48.5908 28.6462 48.5908C30.0796 48.5908 31.2449 47.4255 31.2463 45.9895Z" fill="#D9B165"/>
<path fill-rule="evenodd" clip-rule="evenodd" d="M28.6476 50.0908H28.6436C26.3849 50.0908 24.5449 48.2508 24.5449 45.9882C24.5423 44.8962 24.9689 43.8655 25.7449 43.0895C26.5183 42.3148 27.5476 41.8881 28.6423 41.8855C30.9063 41.8908 32.7449 43.7308 32.7463 45.9882C32.7449 48.2522 30.9049 50.0908 28.6476 50.0908ZM28.6409 44.8868C28.3529 44.8868 28.0756 45.0028 27.8663 45.2108C27.6596 45.4188 27.5449 45.6934 27.5463 45.9868C27.5463 46.5961 28.0383 47.0895 28.6463 47.0895H28.6476C29.2516 47.0895 29.7449 46.5962 29.7449 45.9882C29.7449 45.3842 29.2503 44.8882 28.6409 44.8868Z" fill="white"/>
<path fill-rule="evenodd" clip-rule="evenodd" d="M30.1468 17.1797H27.1455V13.0811H30.1468V17.1797Z" fill="white"/>
<path fill-rule="evenodd" clip-rule="evenodd" d="M53.4098 20.6953L51.3418 14.494L63.0564 2.77661L65.1244 8.98063L53.4098 20.6953Z" fill="#D9B165"/>
<path fill-rule="evenodd" clip-rule="evenodd" d="M53.4102 20.6957L59.6128 22.7637L71.3275 11.049L65.1248 8.98104L53.4102 20.6957Z" fill="#D9B165"/>
<path fill-rule="evenodd" clip-rule="evenodd" d="M52.7534 23.4746L49.624 14.0906L63.712 0.0012207L66.8414 9.38794L52.7534 23.4746ZM53.0574 14.8999L54.0654 17.9199L63.408 8.57723L62.4 5.55591L53.0574 14.8999Z" fill="white"/>
<path fill-rule="evenodd" clip-rule="evenodd" d="M60.0162 24.4805L50.6309 21.3525L64.7202 7.26587L74.1056 10.3925L60.0162 24.4805ZM56.1869 20.0405L59.2069 21.0472L68.5482 11.7045L65.5295 10.6991L56.1869 20.0405Z" fill="white"/>
<path fill-rule="evenodd" clip-rule="evenodd" d="M30.5869 45.084C30.2029 45.084 29.8189 44.9374 29.5269 44.644C28.9402 44.0587 28.9402 43.108 29.5269 42.5227L65.8363 6.21199C66.4229 5.62533 67.3723 5.62533 67.9589 6.21199C68.5456 6.79733 68.5456 7.748 67.9589 8.33333L31.6483 44.644C31.3549 44.9374 30.9709 45.084 30.5869 45.084Z" fill="white"/>
</svg>
