<svg width="48" height="50" fill="none" xmlns="http://www.w3.org/2000/svg"><circle cx="24.5" cy="26.5" r="21.5" fill="url(#prefix__paint0_linear_12_240)" fill-opacity=".2"/><g filter="url(#prefix__filter0_d_12_240)"><circle cx="24" cy="26" r="12" fill="url(#prefix__paint1_linear_12_240)"/></g><path d="M23.104 28.022c0-.468.078-.876.234-1.224.156-.348.348-.66.576-.936a6.57 6.57 0 01.774-.756c.276-.24.534-.474.774-.702.24-.24.432-.492.576-.756a1.77 1.77 0 00.234-.918c0-.576-.228-1.044-.684-1.404-.456-.36-1.086-.54-1.89-.54-.72 0-1.344.12-1.872.36a3.62 3.62 0 00-1.35 1.062l-1.314-.936a5.024 5.024 0 011.926-1.476c.78-.36 1.692-.54 2.736-.54.864 0 1.614.132 2.25.396.636.252 1.128.618 1.476 1.098.36.468.54 1.038.54 1.71 0 .504-.078.936-.234 1.296-.156.36-.354.678-.594.954-.24.276-.498.534-.774.774-.264.24-.516.48-.756.72a3.42 3.42 0 00-.594.792c-.156.288-.234.63-.234 1.026h-1.8zm.918 4.086a1.15 1.15 0 01-.846-.342 1.138 1.138 0 01-.324-.81c0-.336.108-.612.324-.828.228-.216.51-.324.846-.324.336 0 .612.108.828.324.216.216.324.492.324.828 0 .312-.108.582-.324.81a1.09 1.09 0 01-.828.342z" fill="#fff"/><defs><linearGradient id="prefix__paint0_linear_12_240" x1="31.667" y1="31.278" x2="3" y2="5" gradientUnits="userSpaceOnUse"><stop stop-color="#D9B165"/><stop offset="1" stop-color="#FFE1A7"/></linearGradient><linearGradient id="prefix__paint1_linear_12_240" x1="28" y1="28.667" x2="-10" y2="18" gradientUnits="userSpaceOnUse"><stop stop-color="#D9B165"/><stop offset="1" stop-color="#DAC08E"/></linearGradient><filter id="prefix__filter0_d_12_240" x="0" y="2" width="48" height="48" filterUnits="userSpaceOnUse" color-interpolation-filters="sRGB"><feFlood flood-opacity="0" result="BackgroundImageFix"/><feColorMatrix in="SourceAlpha" values="0 0 0 0 0 0 0 0 0 0 0 0 0 0 0 0 0 0 127 0" result="hardAlpha"/><feMorphology radius="2" operator="dilate" in="SourceAlpha" result="effect1_dropShadow_12_240"/><feOffset/><feGaussianBlur stdDeviation="5"/><feComposite in2="hardAlpha" operator="out"/><feColorMatrix values="0 0 0 0 0.85098 0 0 0 0 0.694118 0 0 0 0 0.396078 0 0 0 0.26 0"/><feBlend in2="BackgroundImageFix" result="effect1_dropShadow_12_240"/><feBlend in="SourceGraphic" in2="effect1_dropShadow_12_240" result="shape"/></filter></defs></svg>
