<svg width="30" height="30" viewBox="0 0 30 30" fill="none" xmlns="http://www.w3.org/2000/svg">
  <rect width="29.1176" height="29.1176" rx="14.5588" fill="url(#paint0_linear_1_675)" />
  <path
    d="M20.3824 9.17374L18.1946 20.5952C18.1946 20.5952 17.8885 21.3871 17.0476 21.0073L11.9998 16.9994L11.9764 16.9875C12.6582 16.3535 17.9455 11.4307 18.1766 11.2075C18.5343 10.8619 18.3122 10.6562 17.8969 10.9173L10.0869 16.0533L7.07388 15.0035C7.07388 15.0035 6.59971 14.8288 6.5541 14.449C6.50788 14.0686 7.08949 13.8629 7.08949 13.8629L19.3728 8.87289C19.3728 8.87289 20.3824 8.41355 20.3824 9.17374V9.17374Z"
    fill="#FEFEFE" />
  <defs>
    <linearGradient id="paint0_linear_1_675" x1="23.5" y1="27" x2="5" y2="4" gradientUnits="userSpaceOnUse">
      <stop offset="0.101454" stop-color="#27A6E5" />
      <stop offset="1" stop-color="#A2E0FF" />
    </linearGradient>
  </defs>
</svg>
