<svg width="30" height="30" viewBox="0 0 30 30" fill="none" xmlns="http://www.w3.org/2000/svg">
<rect x="0.882324" width="29.1176" height="29.1176" rx="14.5588" fill="url(#paint0_linear_1_674)"/>
<path d="M19.9936 6.94915C17.2191 6.41929 14.3378 6.41929 11.5632 6.94915C10.336 7.21408 8.78869 8.69768 8.5219 9.86337C8.04169 12.1418 8.04169 14.4731 8.5219 16.7515C8.84204 17.9172 10.3894 19.4008 11.5632 19.6657C11.6166 19.6657 11.67 19.7187 11.67 19.7717V23.1098C11.67 23.2688 11.8834 23.3747 11.9901 23.2158L13.5908 21.5732C13.5908 21.5732 14.8714 20.2486 15.0848 20.0366C15.0848 20.0366 15.1382 19.9836 15.1915 19.9836C16.7922 20.0366 18.4463 19.8777 20.047 19.6127C21.2742 19.3478 22.8216 17.8642 23.0883 16.6985C23.5686 14.4201 23.5686 12.0888 23.0883 9.81038C22.7682 8.69768 21.2209 7.21408 19.9936 6.94915ZM20.047 16.9105C19.7802 17.4403 19.4601 17.8642 18.9265 18.1291C18.7664 18.1821 18.6064 18.2351 18.4463 18.2881C18.2329 18.2351 18.0728 18.1821 17.9127 18.1291C16.2053 17.4403 14.6046 16.4866 13.324 15.109C12.6304 14.3142 12.0435 13.4134 11.5632 12.4597C11.3498 11.9828 11.1364 11.5589 10.9763 11.082C10.8163 10.6582 11.083 10.2343 11.3498 9.91635C11.6166 9.59844 11.9367 9.38649 12.3102 9.22754C12.577 9.06858 12.8438 9.17455 13.0572 9.3865C13.4841 9.91635 13.911 10.4462 14.2311 11.0291C14.4445 11.4 14.3912 11.8238 14.0177 12.0888C13.911 12.1418 13.8576 12.1947 13.7509 12.3007C13.6975 12.3537 13.5908 12.4067 13.5375 12.5127C13.4307 12.6716 13.4307 12.8306 13.4841 12.9895C13.911 14.2082 14.7113 15.1619 15.9385 15.6918C16.1519 15.7978 16.312 15.8508 16.5788 15.8508C16.9523 15.7978 17.1124 15.3739 17.3792 15.1619C17.6459 14.95 17.9661 14.95 18.2862 15.109C18.553 15.2679 18.8198 15.4799 19.1399 15.6918C19.4067 15.9037 19.6735 16.0627 19.9403 16.2746C20.1004 16.3806 20.1537 16.6455 20.047 16.9105ZM17.806 12.9365C17.6993 12.9365 17.7527 12.9365 17.806 12.9365C17.5926 12.9365 17.5392 12.8306 17.4859 12.6716C17.4859 12.5656 17.4859 12.4067 17.4325 12.3007C17.3792 12.0888 17.2724 11.8768 17.059 11.7179C16.9523 11.6649 16.8456 11.6119 16.7389 11.5589C16.5788 11.5059 16.4721 11.5059 16.312 11.5059C16.1519 11.4529 16.0986 11.347 16.0986 11.188C16.0986 11.082 16.2587 10.9761 16.3654 10.9761C17.2191 11.0291 17.8594 11.5059 17.9661 12.5127C17.9661 12.5656 17.9661 12.6716 17.9661 12.7246C17.9661 12.8306 17.9127 12.9365 17.806 12.9365ZM17.2724 10.6052C17.0057 10.4992 16.7389 10.3932 16.4187 10.3402C16.312 10.3402 16.1519 10.2873 16.0452 10.2873C15.8852 10.2873 15.7784 10.1813 15.8318 10.0223C15.8318 9.86337 15.9385 9.75739 16.0986 9.81038C16.6322 9.86337 17.1124 9.96934 17.5926 10.1813C18.553 10.6582 19.0866 11.4529 19.2466 12.5127C19.2466 12.5656 19.2466 12.6186 19.2466 12.6716C19.2466 12.7776 19.2466 12.8836 19.2466 13.0425C19.2466 13.0955 19.2466 13.1485 19.2466 13.2015C19.1933 13.4134 18.8198 13.4664 18.7664 13.2015C18.7664 13.1485 18.7131 13.0425 18.7131 12.9895C18.7131 12.5127 18.6064 12.0358 18.3929 11.6119C18.0728 11.135 17.6993 10.8171 17.2724 10.6052ZM20.1537 13.7843C19.9936 13.7843 19.8869 13.6254 19.8869 13.4664C19.8869 13.1485 19.8336 12.8306 19.7802 12.5127C19.5668 10.8171 18.1795 9.43948 16.5254 9.17455C16.2587 9.12157 15.9919 9.12157 15.7784 9.06858C15.6184 9.06858 15.4049 9.06858 15.3516 8.85664C15.2982 8.69768 15.4583 8.53872 15.6184 8.53872C15.6717 8.53872 15.7251 8.53872 15.7251 8.53872C17.9127 8.59171 15.8318 8.53872 15.7251 8.53872C17.9661 8.59171 19.8336 10.0753 20.2071 12.3007C20.2604 12.6716 20.3138 13.0425 20.3138 13.4664C20.4205 13.6254 20.3138 13.7843 20.1537 13.7843Z" fill="white"/>
<defs>
<linearGradient id="paint0_linear_1_674" x1="21.5" y1="25.5" x2="4.5" y2="-2.4073e-06" gradientUnits="userSpaceOnUse">
<stop stop-color="#7C509A"/>
<stop offset="1" stop-color="#DFB0FF"/>
</linearGradient>
</defs>
</svg>
