<svg width="30" height="30" viewBox="0 0 30 30" fill="none" xmlns="http://www.w3.org/2000/svg">
<rect x="0.441162" width="29.1176" height="29.1176" rx="14.5588" fill="url(#paint0_linear_1_673)"/>
<path d="M20.7703 8.78108C19.3321 7.34794 17.4146 6.55176 15.3906 6.55176C11.1827 6.55176 7.77384 9.94882 7.77384 14.1421C7.77384 15.469 8.14669 16.796 8.78586 17.9107L7.72058 21.8385L11.7686 20.7769C12.8872 21.3608 14.1123 21.6793 15.3906 21.6793C19.5984 21.6793 23.0073 18.2822 23.0073 14.089C22.9541 12.1251 22.2084 10.2142 20.7703 8.78108ZM19.0658 16.8491C18.906 17.2737 18.1603 17.6984 17.7875 17.7514C17.4679 17.8045 17.0418 17.8045 16.6157 17.6984C16.3493 17.5922 15.9765 17.486 15.5504 17.2737C13.6329 16.4775 12.4078 14.5667 12.3013 14.4075C12.1948 14.3013 11.5023 13.399 11.5023 12.4435C11.5023 11.4881 11.9817 11.0635 12.1415 10.8512C12.3013 10.6388 12.5143 10.6388 12.6741 10.6388C12.7807 10.6388 12.9404 10.6388 13.047 10.6388C13.1535 10.6388 13.3133 10.5858 13.4731 10.9573C13.6329 11.3289 14.0057 12.2843 14.059 12.3374C14.1123 12.4435 14.1123 12.5497 14.059 12.6558C14.0057 12.762 13.9525 12.8682 13.8459 12.9743C13.7394 13.0805 13.6329 13.2397 13.5796 13.2928C13.4731 13.399 13.3666 13.5051 13.4731 13.6643C13.5796 13.8767 13.9525 14.4605 14.5384 14.9913C15.2841 15.6283 15.87 15.8406 16.083 15.9467C16.2961 16.0529 16.4026 15.9998 16.5091 15.8937C16.6157 15.7875 16.9885 15.3629 17.095 15.1506C17.2016 14.9382 17.3614 14.9913 17.5212 15.0444C17.6809 15.0975 18.6397 15.5752 18.7995 15.6814C19.0125 15.7875 19.1191 15.8406 19.1723 15.8937C19.2256 16.0529 19.2256 16.4245 19.0658 16.8491Z" fill="white"/>
<defs>
<linearGradient id="paint0_linear_1_673" x1="19.8529" y1="17.7941" x2="0.441162" y2="0" gradientUnits="userSpaceOnUse">
<stop stop-color="#48C95F"/>
<stop offset="1" stop-color="#B7FFC4"/>
</linearGradient>
</defs>
</svg>
